<svg width="47" height="47" viewBox="0 0 47 47" fill="none" xmlns="http://www.w3.org/2000/svg">
<path d="M18.4666 43.999C17.4585 40.7232 15.9382 38.2817 13.9045 36.6735C10.8546 34.2617 6.00857 35.7613 4.21872 33.2726C2.42886 30.784 5.47264 26.2085 6.54039 23.5087C7.60916 20.8089 2.44635 19.8547 3.04914 19.088C3.45031 18.5765 6.06 17.1026 10.8762 14.6642C12.2443 6.88773 17.298 3 26.0395 3C39.1507 3 44.1459 14.0759 44.1459 21.1215C44.1459 28.1662 38.0974 35.7551 29.4814 37.392C28.7109 38.5092 29.8219 40.7129 32.8142 44" stroke="black" stroke-width="4.667" stroke-linecap="round" stroke-linejoin="round"/>
<path d="M18.9438 13.7618C18.271 16.3591 18.4706 18.1836 19.5435 19.2332C20.6153 20.2838 22.4422 20.9705 25.0241 21.2934C24.4378 24.645 25.1527 26.2163 27.1668 26.0093C29.1809 25.8022 30.3916 24.9689 30.798 23.5083C33.9456 24.3898 35.6522 23.6518 35.9165 21.2944C36.3126 17.7582 34.3993 14.9385 33.6144 14.9385C32.8306 14.9385 30.798 14.8432 30.798 13.7618C30.798 12.6805 28.4238 12.0706 26.2811 12.0706C24.1385 12.0706 25.4274 10.6305 22.4854 11.1994C20.5238 11.5786 19.3429 12.4324 18.9438 13.7618V13.7618Z" stroke="black" stroke-width="4" stroke-linejoin="round"/>
<path d="M30.2595 25.0371C29.2134 25.6839 27.7784 26.7591 27.1736 27.5995C25.6625 29.7007 24.4374 30.9789 24.1699 32.3226" stroke="black" stroke-width="4" stroke-linecap="round"/>
</svg>
